<svg width="14" height="14" viewBox="0 0 14 14" fill="none" xmlns="http://www.w3.org/2000/svg">
<path d="M0.470703 5.96094C0.470703 6.71289 0.611979 7.41927 0.894531 8.08008C1.17708 8.73633 1.56901 9.3151 2.07031 9.81641C2.57161 10.3177 3.15039 10.7096 3.80664 10.9922C4.46745 11.2747 5.17383 11.416 5.92578 11.416C6.51823 11.416 7.08333 11.3249 7.62109 11.1426C8.15885 10.9603 8.65104 10.7096 9.09766 10.3906L12.4609 13.7607C12.543 13.8382 12.6318 13.8952 12.7275 13.9316C12.8278 13.9727 12.9326 13.9932 13.042 13.9932C13.1969 13.9932 13.3337 13.9567 13.4521 13.8838C13.5706 13.8154 13.6618 13.7197 13.7256 13.5967C13.7939 13.4736 13.8281 13.3369 13.8281 13.1865C13.8281 13.0771 13.8076 12.9746 13.7666 12.8789C13.7301 12.7832 13.6755 12.6989 13.6025 12.626L10.2598 9.2627C10.6107 8.80697 10.8841 8.29883 11.0801 7.73828C11.2806 7.17773 11.3809 6.58529 11.3809 5.96094C11.3809 5.20898 11.2396 4.50488 10.957 3.84863C10.6745 3.18783 10.2826 2.60677 9.78125 2.10547C9.27995 1.60417 8.69889 1.21224 8.03809 0.929688C7.38184 0.647135 6.67773 0.505859 5.92578 0.505859C5.17383 0.505859 4.46745 0.647135 3.80664 0.929688C3.15039 1.21224 2.57161 1.60417 2.07031 2.10547C1.56901 2.60677 1.17708 3.18783 0.894531 3.84863C0.611979 4.50488 0.470703 5.20898 0.470703 5.96094ZM1.63965 5.96094C1.63965 5.36849 1.74902 4.81478 1.96777 4.2998C2.19108 3.78027 2.4987 3.32454 2.89062 2.93262C3.28711 2.53613 3.74284 2.22852 4.25781 2.00977C4.77734 1.78646 5.33333 1.6748 5.92578 1.6748C6.51823 1.6748 7.07194 1.78646 7.58691 2.00977C8.10645 2.22852 8.56217 2.53613 8.9541 2.93262C9.34603 3.32454 9.65365 3.78027 9.87695 4.2998C10.1003 4.81478 10.2119 5.36849 10.2119 5.96094C10.2119 6.55339 10.1003 7.10938 9.87695 7.62891C9.65365 8.14388 9.34603 8.59733 8.9541 8.98926C8.56217 9.38118 8.10645 9.6888 7.58691 9.91211C7.07194 10.1354 6.51823 10.2471 5.92578 10.2471C5.33333 10.2471 4.77734 10.1354 4.25781 9.91211C3.74284 9.6888 3.28711 9.38118 2.89062 8.98926C2.4987 8.59733 2.19108 8.14388 1.96777 7.62891C1.74902 7.10938 1.63965 6.55339 1.63965 5.96094Z" fill="#49555E"/>
</svg>
