<svg width="96" height="21" viewBox="0 0 96 21" fill="none" xmlns="http://www.w3.org/2000/svg">
<path d="M30.8121 12.7525C33.5647 12.7525 35.2807 11.0703 35.2807 8.35994V0.977031C35.2882 0.864802 35.2718 0.752256 35.2327 0.64695C35.1936 0.541643 35.1326 0.446011 35.0538 0.366474C34.9751 0.286936 34.8804 0.225334 34.7762 0.185802C34.6719 0.146269 34.5605 0.129721 34.4494 0.137269H33.9724C33.8613 0.129721 33.7499 0.146269 33.6456 0.185802C33.5414 0.225334 33.4467 0.286936 33.3679 0.366474C33.2892 0.446011 33.2282 0.541643 33.1891 0.64695C33.1499 0.752256 33.1336 0.864802 33.141 0.977031V8.39224C33.141 9.85106 32.2217 10.6935 30.8121 10.6935C29.4025 10.6935 28.4672 9.85106 28.4672 8.39224V0.977031C28.4742 0.864907 28.4576 0.752556 28.4183 0.647451C28.379 0.542347 28.318 0.446899 28.2393 0.367456C28.1607 0.288014 28.0662 0.226398 27.9621 0.186709C27.8581 0.147019 27.7468 0.130166 27.6358 0.137269H27.1429C27.0317 0.129766 26.9201 0.146322 26.8158 0.185833C26.7114 0.225344 26.6165 0.286899 26.5376 0.366386C26.4587 0.445873 26.3974 0.541461 26.358 0.646766C26.3185 0.75207 26.3018 0.864666 26.3088 0.977031V8.35994C26.3088 11.0892 28.0249 12.7525 30.8121 12.7525ZM18.7972 2.23129V11.7917C18.7914 11.9013 18.8085 12.011 18.8475 12.1136C18.8864 12.2162 18.9463 12.3093 19.0232 12.387C19.1001 12.4646 19.1923 12.5251 19.2938 12.5644C19.3954 12.6038 19.5039 12.6211 19.6125 12.6153H20.0869C20.1961 12.6201 20.3051 12.6022 20.4072 12.5628C20.5093 12.5233 20.6023 12.4632 20.6805 12.386C20.7587 12.3088 20.8203 12.2162 20.8617 12.114C20.903 12.0118 20.9232 11.9021 20.9209 11.7917V2.23129H23.852C23.9618 2.23646 24.0715 2.21815 24.1738 2.17755C24.2761 2.13696 24.3688 2.075 24.4458 1.99572C24.5227 1.91645 24.5823 1.82165 24.6205 1.71753C24.6587 1.61342 24.6747 1.50232 24.6674 1.39153V0.977031C24.6748 0.865523 24.6586 0.753709 24.6199 0.649001C24.5812 0.544293 24.521 0.449081 24.4431 0.369677C24.3653 0.290274 24.2716 0.22849 24.1683 0.188423C24.065 0.148356 23.9545 0.130919 23.844 0.137269H15.874C15.7641 0.131668 15.6543 0.149684 15.5518 0.190127C15.4492 0.23057 15.3564 0.29252 15.2793 0.371886C15.2023 0.451252 15.1427 0.546228 15.1047 0.650542C15.0667 0.754856 15.051 0.866135 15.0586 0.977031V1.39153C15.051 1.50242 15.0667 1.6137 15.1047 1.71802C15.1427 1.82233 15.2023 1.91731 15.2793 1.99667C15.3564 2.07604 15.4492 2.13799 15.5518 2.17843C15.6543 2.21888 15.7641 2.23689 15.874 2.23129H18.7972ZM11.3521 11.8078C11.3472 11.918 11.3655 12.0279 11.406 12.1303C11.4465 12.2327 11.5081 12.3252 11.5868 12.4016C11.6655 12.4781 11.7594 12.5366 11.8623 12.5735C11.9652 12.6103 12.0747 12.6246 12.1835 12.6153H12.6418C12.7511 12.6264 12.8614 12.6134 12.9652 12.5772C13.069 12.541 13.1639 12.4826 13.2432 12.4058C13.3224 12.3291 13.3843 12.2358 13.4245 12.1326C13.4646 12.0294 13.4822 11.9186 13.4758 11.8078V0.960882C13.4827 0.849282 13.4658 0.737489 13.426 0.633121C13.3863 0.528754 13.3247 0.434266 13.2456 0.356098C13.1664 0.27793 13.0715 0.21792 12.9673 0.180156C12.8631 0.142393 12.7521 0.127765 12.6418 0.137269H12.1675C12.0582 0.128325 11.9482 0.143492 11.8453 0.18172C11.7423 0.219947 11.6488 0.280322 11.5713 0.358661C11.4937 0.437001 11.4339 0.531433 11.3961 0.635418C11.3583 0.739403 11.3432 0.850454 11.3521 0.960882V11.8078ZM6.23595 5.40731C5.54047 5.23506 4.97823 5.09779 4.31739 4.90938C3.48335 4.68598 2.71859 4.32531 2.70261 3.56361C2.68662 2.65386 3.53398 2.01866 4.70643 2.01866C5.87888 2.01866 6.77954 2.55697 6.88346 3.58245C6.90243 3.79873 7.00282 3.99941 7.16395 4.14313C7.32508 4.28686 7.53465 4.36266 7.74947 4.35492H8.24244C8.35563 4.36824 8.47034 4.355 8.57765 4.31623C8.68495 4.27747 8.78195 4.21421 8.8611 4.1314C8.94025 4.04858 8.99942 3.94844 9.034 3.83875C9.06859 3.72907 9.07765 3.61281 9.06049 3.49901C8.83665 1.39153 6.98472 0 4.74107 0C2.38018 0 0.533572 1.3054 0.533572 3.62282C0.533572 5.65224 2.19366 6.50546 3.61925 6.91727C4.33338 7.12183 5.03152 7.31293 5.67637 7.45558C6.76355 7.72473 7.18723 8.19306 7.18723 8.93055C7.18723 9.87528 6.27059 10.6478 4.81035 10.6478C3.29682 10.6478 2.32955 9.92642 2.22563 8.38147C2.22602 8.26953 2.20335 8.15872 2.15908 8.0561C2.11481 7.95347 2.04989 7.86127 1.96845 7.78534C1.88702 7.70941 1.79084 7.65141 1.68603 7.61503C1.58122 7.57865 1.47006 7.56468 1.35962 7.57401H0.800038C0.692314 7.57392 0.585683 7.59583 0.486551 7.63841C0.387419 7.68099 0.29783 7.74338 0.223166 7.82181C0.148501 7.90025 0.090301 7.99311 0.0520612 8.09484C0.0138215 8.19656 -0.00366918 8.30505 0.000639819 8.41377C0.0512684 11.3045 2.07375 12.7525 4.81035 12.7525C7.6642 12.7525 9.43087 10.8469 9.43087 8.89017C9.43087 7.08953 8.44495 5.92947 6.23328 5.40731" fill="white"/>
<path d="M35.0543 19.1342C34.9914 19.2415 34.9729 19.3694 35.0029 19.4903C35.0328 19.6113 35.1087 19.7154 35.2141 19.7802L35.5605 19.9417C35.6746 20.0008 35.8067 20.0143 35.9302 19.9794C36.0537 19.9444 36.1596 19.8637 36.2267 19.7533L46.1792 0.960882C46.2459 0.842998 46.2637 0.703246 46.2288 0.572135C46.1938 0.441024 46.109 0.329201 45.9927 0.26108L45.593 0.0457563C45.4791 -0.00316155 45.3515 -0.00826649 45.2341 0.0314058C45.1168 0.071078 45.0179 0.152781 44.9561 0.26108L35.0543 19.1342Z" fill="white"/>
<path d="M46.4834 18.515V12.5682H47.9701V18.515H46.4834ZM47.9701 20.0017V18.515H52.4302V20.0017H47.9701ZM47.9701 12.5682V11.0815H52.4302V12.5682H47.9701ZM52.4302 18.515V17.0283H53.9169V18.515H52.4302ZM52.4302 14.0549V12.5682H53.9169V14.0549H52.4302Z" fill="white"/>
<path d="M56.8903 18.515V12.5682H58.377V18.515H56.8903ZM58.377 20.0017V18.515H62.8371V20.0017H58.377ZM58.377 12.5682V11.0815H62.8371V12.5682H58.377ZM62.8371 18.515V12.5682H64.3238V18.515H62.8371Z" fill="white"/>
<path d="M67.2972 18.515V12.5682H68.7839V18.515H71.7572V20.0017H68.7839V18.515H67.2972ZM68.7839 12.5682V11.0815H71.7572V12.5682H73.2439V8.09961H74.7306V20.0017H73.2439V18.515H71.7572V17.0283H73.2439V14.0549H71.7572V12.5682H68.7839Z" fill="white"/>
<path d="M77.704 18.515V12.5682H79.1907V14.0549H83.6508V12.5682H79.1907V11.0815H83.6508V12.5682H85.1375V15.5416H79.1907V18.515H83.6508V20.0017H79.1907V18.515H77.704ZM83.6508 18.515V17.0283H85.1375V18.515H83.6508Z" fill="white"/>
<path d="M88.1109 18.515V12.5682H89.5976V18.515H88.1109ZM89.5976 20.0017V18.515H94.0577V20.0017H89.5976ZM89.5976 12.5682V11.0815H94.0577V12.5682H89.5976ZM94.0577 18.515V17.0283H95.5444V18.515H94.0577ZM94.0577 14.0549V12.5682H95.5444V14.0549H94.0577Z" fill="white"/>
</svg>
